<svg width="20" height="20" viewBox="0 0 20 20" fill="none" xmlns="http://www.w3.org/2000/svg">
<path d="M9.99999 18.3334C5.40832 18.3334 1.66666 14.5917 1.66666 10C1.66666 5.40837 5.40832 1.66671 9.99999 1.66671C14.5917 1.66671 18.3333 5.40837 18.3333 10C18.3333 14.5917 14.5917 18.3334 9.99999 18.3334ZM13.3833 8.50837C13.2583 8.38337 13.1 8.32504 12.9417 8.32504C12.7833 8.32504 12.625 8.38337 12.5 8.50837L9.99999 11.0084L7.49999 8.50837C7.25832 8.26671 6.85832 8.26671 6.61666 8.50837C6.37499 8.75004 6.37499 9.15004 6.61666 9.39171L9.55832 12.3334C9.79999 12.575 10.2 12.575 10.4417 12.3334L13.3833 9.39171C13.625 9.14171 13.625 8.75004 13.3833 8.50837Z" fill="#EB3B5A"/>
</svg>
