<svg width="16" height="16" viewBox="0 0 16 16" fill="none" xmlns="http://www.w3.org/2000/svg">
<path d="M8.00001 1.33337C4.32668 1.33337 1.33334 4.32671 1.33334 8.00004C1.33334 11.6734 4.32668 14.6667 8.00001 14.6667C11.6733 14.6667 14.6667 11.6734 14.6667 8.00004C14.6667 4.32671 11.6733 1.33337 8.00001 1.33337ZM10.7067 9.19337C10.6067 9.29337 10.48 9.34004 10.3533 9.34004C10.2267 9.34004 10.1 9.29337 10 9.19337L8.00001 7.19337L6.00001 9.19337C5.80668 9.38671 5.48668 9.38671 5.29334 9.19337C5.10001 9.00004 5.10001 8.68004 5.29334 8.48671L7.64668 6.13337C7.84001 5.94004 8.16001 5.94004 8.35334 6.13337L10.7067 8.48671C10.9 8.68671 10.9 9.00004 10.7067 9.19337Z" fill="#20BF6B"/>
</svg>
