<svg width="24" height="24" viewBox="0 0 24 24" fill="none" xmlns="http://www.w3.org/2000/svg">
<path d="M7.24 2H5.34C3.15 2 2 3.15 2 5.33V7.23C2 9.41 3.15 10.56 5.33 10.56H7.23C9.41 10.56 10.56 9.41 10.56 7.23V5.33C10.57 3.15 9.42 2 7.24 2Z" fill="#784FFE"/>
<path d="M18.67 2H16.77C14.59 2 13.44 3.15 13.44 5.33V7.23C13.44 9.41 14.59 10.56 16.77 10.56H18.67C20.85 10.56 22 9.41 22 7.23V5.33C22 3.15 20.85 2 18.67 2Z" fill="#784FFE"/>
<path d="M18.67 13.4301H16.77C14.59 13.4301 13.44 14.5801 13.44 16.7601V18.6601C13.44 20.8401 14.59 21.9901 16.77 21.9901H18.67C20.85 21.9901 22 20.8401 22 18.6601V16.7601C22 14.5801 20.85 13.4301 18.67 13.4301Z" fill="#784FFE"/>
<path d="M7.24 13.4301H5.34C3.15 13.4301 2 14.5801 2 16.7601V18.6601C2 20.8501 3.15 22.0001 5.33 22.0001H7.23C9.41 22.0001 10.56 20.8501 10.56 18.6701V16.7701C10.57 14.5801 9.42 13.4301 7.24 13.4301Z" fill="#784FFE"/>
</svg>
