<svg width="32" height="32" viewBox="0 0 32 32" fill="none" xmlns="http://www.w3.org/2000/svg">
<path d="M0 6C0 2.68629 2.68629 0 6 0H26C29.3137 0 32 2.68629 32 6V26C32 29.3137 29.3137 32 26 32H6C2.68629 32 0 29.3137 0 26V6Z" fill="#724BF2"/>
<path d="M20.9133 11.26L17.0067 9.51996C16.4333 9.26662 15.5667 9.26662 14.9933 9.51996L11.0867 11.26C10.1 11.7 9.95334 12.3 9.95334 12.62C9.95334 12.94 10.1 13.54 11.0867 13.98L14.9933 15.72C15.28 15.8466 15.64 15.9133 16 15.9133C16.36 15.9133 16.72 15.8466 17.0067 15.72L20.9133 13.98C21.9 13.54 22.0467 12.94 22.0467 12.62C22.0467 12.3 21.9067 11.7 20.9133 11.26Z" fill="white"/>
<path d="M16 19.36C15.7467 19.36 15.4933 19.3067 15.26 19.2067L10.7667 17.2067C10.08 16.9 9.54666 16.08 9.54666 15.3267C9.54666 15.0534 9.76666 14.8334 10.04 14.8334C10.3133 14.8334 10.5333 15.0534 10.5333 15.3267C10.5333 15.6867 10.8333 16.1534 11.1667 16.3L15.66 18.3C15.8733 18.3934 16.12 18.3934 16.3333 18.3L20.8267 16.3C21.16 16.1534 21.46 15.6934 21.46 15.3267C21.46 15.0534 21.68 14.8334 21.9533 14.8334C22.2267 14.8334 22.4467 15.0534 22.4467 15.3267C22.4467 16.0734 21.9133 16.9 21.2267 17.2067L16.7333 19.2067C16.5067 19.3067 16.2533 19.36 16 19.36Z" fill="white"/>
<path d="M16 22.6667C15.7467 22.6667 15.4933 22.6133 15.26 22.5133L10.7667 20.5133C10.0267 20.1867 9.54666 19.4467 9.54666 18.6333C9.54666 18.36 9.76666 18.14 10.04 18.14C10.3133 18.14 10.5333 18.36 10.5333 18.6333C10.5333 19.0533 10.78 19.4333 11.1667 19.6067L15.66 21.6067C15.8733 21.7 16.12 21.7 16.3333 21.6067L20.8267 19.6067C21.2067 19.44 21.46 19.0533 21.46 18.6333C21.46 18.36 21.68 18.14 21.9533 18.14C22.2267 18.14 22.4467 18.36 22.4467 18.6333C22.4467 19.4467 21.9667 20.18 21.2267 20.5133L16.7333 22.5133C16.5067 22.6133 16.2533 22.6667 16 22.6667Z" fill="white"/>
</svg>
