<svg width="93" height="30" viewBox="0 0 93 30" fill="none" xmlns="http://www.w3.org/2000/svg">
<path d="M83 12L87.5 16.5L92 12" stroke="#2C384F" stroke-width="1.5"/>
<path d="M21.75 3.49062C19.6203 2.17656 17.1734 1.40625 14.5 1.40625V3.49062H21.75Z" fill="#ED4C5C"/>
<path d="M14.5 5.57498H24.2875C23.5172 4.80466 22.6562 4.07966 21.75 3.4906H14.5V5.57498Z" fill="white"/>
<path d="M14.5 7.65933H25.9641C25.4656 6.88901 24.9219 6.20933 24.3328 5.57495H14.5V7.65933Z" fill="#ED4C5C"/>
<path d="M14.5 9.7438H27.0516C26.7344 9.0188 26.3719 8.2938 25.9641 7.65942H14.5V9.7438Z" fill="white"/>
<path d="M14.5 11.8281H27.7313C27.55 11.1031 27.3234 10.4235 27.0516 9.74377H14.5V11.8281Z" fill="#ED4C5C"/>
<path d="M14.5 13.9578H28.0484C28.0031 13.2328 27.8672 12.5531 27.7313 11.8734H14.5V13.9578" fill="white"/>
<path d="M28.0484 13.9578H14.5V14.9999H0.90625C0.90625 15.3624 0.90625 15.6796 0.951562 16.0421H28.0484C28.0938 15.6796 28.0938 15.3624 28.0938 14.9999C28.0938 14.6374 28.0938 14.275 28.0484 13.9578" fill="#ED4C5C"/>
<path d="M1.26876 18.1266H27.7313C27.9125 17.4469 28.0031 16.7672 28.0484 16.0422H0.951569C0.996881 16.7219 1.13282 17.4469 1.26876 18.1266Z" fill="white"/>
<path d="M1.94846 20.211H27.0516C27.3235 19.5313 27.55 18.8516 27.7313 18.1266H1.26877C1.45002 18.8516 1.67658 19.5313 1.94846 20.211Z" fill="#ED4C5C"/>
<path d="M3.03596 22.2953H25.9641C26.3719 21.6156 26.7344 20.9359 27.0516 20.2109H1.94846C2.26564 20.9359 2.62814 21.6156 3.03596 22.2953" fill="white"/>
<path d="M4.66717 24.3797H24.3328C24.9219 23.7453 25.5109 23.0203 25.964 22.2953H3.03592C3.48904 23.0656 4.07811 23.7453 4.66717 24.3797Z" fill="#ED4C5C"/>
<path d="M7.20471 26.464H21.7953C22.7469 25.8749 23.5625 25.15 24.3328 24.3796H4.66721C5.43752 25.1953 6.29846 25.8749 7.20471 26.464Z" fill="white"/>
<path d="M14.5 28.5938C17.1734 28.5938 19.6656 27.8235 21.7953 26.4641H7.20468C9.33437 27.8235 11.8266 28.5938 14.5 28.5938Z" fill="#ED4C5C"/>
<path d="M7.25 3.49062C6.29844 4.07969 5.4375 4.80469 4.66719 5.575C4.03281 6.20937 3.48906 6.93438 3.03594 7.65938C2.62812 8.33906 2.22031 9.01875 1.94844 9.74375C1.67656 10.4234 1.45 11.1031 1.26875 11.8281C1.0875 12.5078 0.996875 13.1875 0.951562 13.9125C0.90625 14.275 0.90625 14.6375 0.90625 15H14.5V1.40625C11.8266 1.40625 9.37969 2.17656 7.25 3.49062Z" fill="#428BC1"/>
<path d="M11.3281 1.85938L11.5547 2.53906H12.2344L11.6906 2.99219L11.8719 3.67188L11.3281 3.26406L10.7844 3.67188L10.9656 2.99219L10.4219 2.53906H11.1016L11.3281 1.85938Z" fill="white"/>
<path d="M13.1406 4.57812L13.3672 5.25781H14.0469L13.5031 5.71094L13.6844 6.39062L13.1406 5.98281L12.5969 6.39062L12.7781 5.71094L12.2344 5.25781H12.9141L13.1406 4.57812Z" fill="white"/>
<path d="M9.51562 4.57812L9.74219 5.25781H10.4219L9.87812 5.71094L10.0594 6.39062L9.51562 5.98281L8.97187 6.39062L9.15313 5.71094L8.60938 5.25781H9.28906L9.51562 4.57812Z" fill="white"/>
<path d="M11.3281 7.29688L11.5547 7.97656H12.2344L11.6906 8.42969L11.8719 9.10938L11.3281 8.70156L10.7844 9.10938L10.9656 8.42969L10.4219 7.97656H11.1016L11.3281 7.29688Z" fill="white"/>
<path d="M7.70312 7.29688L7.92969 7.97656H8.60938L8.06562 8.42969L8.24688 9.10938L7.70312 8.70156L7.15938 9.10938L7.34063 8.42969L6.79688 7.97656H7.47656L7.70312 7.29688Z" fill="white"/>
<path d="M4.07812 7.29688L4.30469 7.97656H4.98438L4.44063 8.42969L4.62187 9.10938L4.07812 8.70156L3.53438 9.10938L3.71562 8.42969L3.17188 7.97656H3.85156L4.07812 7.29688Z" fill="white"/>
<path d="M13.1406 10.0156L13.3672 10.6953H14.0469L13.5031 11.1484L13.6844 11.8281L13.1406 11.4203L12.5969 11.8281L12.7781 11.1484L12.2344 10.6953H12.9141L13.1406 10.0156Z" fill="white"/>
<path d="M9.51562 10.0156L9.74219 10.6953H10.4219L9.87812 11.1484L10.0594 11.8281L9.51562 11.4203L8.97187 11.8281L9.15313 11.1484L8.60938 10.6953H9.28906L9.51562 10.0156Z" fill="white"/>
<path d="M5.89062 10.0156L6.11719 10.6953H6.79688L6.25313 11.1484L6.43437 11.8281L5.89062 11.4203L5.34688 11.8281L5.52812 11.1484L4.98438 10.6953H5.66406L5.89062 10.0156Z" fill="white"/>
<path d="M11.3281 12.7344L11.5547 13.4141H12.2344L11.6906 13.8672L11.8719 14.5469L11.3281 14.1391L10.7844 14.5469L10.9656 13.8672L10.4219 13.4141H11.1016L11.3281 12.7344Z" fill="white"/>
<path d="M7.70312 12.7344L7.92969 13.4141H8.60938L8.06562 13.8672L8.24688 14.5469L7.70312 14.1391L7.15938 14.5469L7.34063 13.8672L6.79688 13.4141H7.47656L7.70312 12.7344Z" fill="white"/>
<path d="M4.07812 12.7344L4.30469 13.4141H4.98438L4.44063 13.8672L4.62187 14.5469L4.07812 14.1391L3.53438 14.5469L3.71562 13.8672L3.17188 13.4141H3.85156L4.07812 12.7344Z" fill="white"/>
<path d="M5.34685 6.39062L5.8906 5.98281L6.43435 6.39062L6.20779 5.71094L6.75154 5.25781H6.07185L5.8906 4.57812L5.66404 5.25781H5.02966L5.57341 5.66562L5.34685 6.39062" fill="white"/>
<path d="M1.72187 11.8281L2.26562 11.4203L2.80937 11.8281L2.58281 11.1484L3.12656 10.6953H2.49218L2.26562 10.0156L2.03906 10.6953H1.58593C1.58593 10.7406 1.54062 10.7859 1.54062 10.8312L1.90312 11.1031L1.72187 11.8281" fill="white"/>
<path d="M47.7614 9.36364V16.875C47.7614 18.4545 46.6705 19.5909 44.8977 19.5909C43.1307 19.5909 42.0341 18.4545 42.0341 16.875V9.36364H40.2784V17.017C40.2784 19.4602 42.108 21.1932 44.8977 21.1932C47.6875 21.1932 49.5227 19.4602 49.5227 17.017V9.36364H47.7614ZM58.4219 12.4205H60.1151C60.0639 10.5568 58.4162 9.20455 56.0526 9.20455C53.7173 9.20455 51.9276 10.5398 51.9276 12.5455C51.9276 14.1648 53.0866 15.1136 54.956 15.6193L56.331 15.9943C57.5753 16.3239 58.5355 16.733 58.5355 17.767C58.5355 18.9034 57.4503 19.6534 55.956 19.6534C54.6037 19.6534 53.4787 19.0511 53.3764 17.7841H51.6151C51.7287 19.892 53.3594 21.1932 55.9673 21.1932C58.7003 21.1932 60.2741 19.7557 60.2741 17.7841C60.2741 15.6875 58.4048 14.875 56.9276 14.5114L55.7912 14.2159C54.8821 13.983 53.6719 13.5568 53.6776 12.4432C53.6776 11.4545 54.581 10.7216 56.0128 10.7216C57.348 10.7216 58.2969 11.3466 58.4219 12.4205ZM66.1392 21C69.6847 21 71.7358 18.8011 71.7358 15.1648C71.7358 11.5455 69.6847 9.36364 66.2585 9.36364H62.3722V21H66.1392ZM64.1278 19.4659V10.8977H66.1506C68.696 10.8977 70.0085 12.4205 70.0085 15.1648C70.0085 17.9205 68.696 19.4659 66.0426 19.4659H64.1278Z" fill="#2C384F"/>
</svg>
