<svg width="32" height="32" viewBox="0 0 32 32" fill="none" xmlns="http://www.w3.org/2000/svg">
<path d="M0 6C0 2.68629 2.68629 0 6 0H26C29.3137 0 32 2.68629 32 6V26C32 29.3137 29.3137 32 26 32H6C2.68629 32 0 29.3137 0 26V6Z" fill="#724BF2"/>
<path d="M21.9333 14.5667L22.3267 21.16C22.34 21.34 22.2533 21.46 22.2067 21.5133C22.1533 21.5733 22.04 21.6667 21.8533 21.6667H20.0333L21.4733 14.5667H21.9333ZM22.6667 12L22.66 12.0133C22.6733 12.1733 22.66 12.34 22.62 12.5067L17.7067 21.5267C17.5467 22.2 16.9467 22.6667 16.2533 22.6667H21.8533C22.7133 22.6667 23.3933 21.94 23.3267 21.08L22.6667 12Z" fill="white"/>
<path d="M15.6333 9.49333C15.7 9.22666 15.5333 8.95333 15.2667 8.88666C15 8.82666 14.7267 8.98666 14.66 9.25333L14.3267 10.6333H15.3533L15.6333 9.49333Z" fill="white"/>
<path d="M20.0333 9.47331C20.0933 9.19997 19.92 8.93997 19.6467 8.87997C19.38 8.81997 19.1133 8.99331 19.0533 9.26664L18.7533 10.6466H19.78L20.0333 9.47331Z" fill="white"/>
<path d="M22.5467 11.5533C22.3267 11.02 21.8067 10.64 21.1667 10.64H19.78L19.4067 12.3666C19.3533 12.6 19.1467 12.76 18.92 12.76C18.8867 12.76 18.8467 12.76 18.8133 12.7466C18.5467 12.6866 18.3733 12.42 18.4267 12.1533L18.7533 10.6333H15.3533L14.9333 12.3666C14.88 12.5933 14.6733 12.7466 14.4467 12.7466C14.4067 12.7466 14.3667 12.74 14.3267 12.7333C14.06 12.6666 13.8933 12.4 13.96 12.1266L14.32 10.6266H12.9667C12.3133 10.6266 11.7333 11.0533 11.54 11.68L8.73334 20.7133C8.44001 21.68 9.15334 22.6666 10.16 22.6666H18.92C19.6133 22.6666 20.2133 22.2 20.3733 21.5266L22.62 12.5066C22.66 12.34 22.6733 12.1733 22.66 12.0133C22.6467 11.8533 22.6133 11.6933 22.5467 11.5533ZM17.8 19.1666H12.4667C12.1933 19.1666 11.9667 18.94 11.9667 18.6666C11.9667 18.3933 12.1933 18.1666 12.4667 18.1666H17.8C18.0733 18.1666 18.3 18.3933 18.3 18.6666C18.3 18.94 18.0733 19.1666 17.8 19.1666ZM18.4667 16.5H13.1333C12.86 16.5 12.6333 16.2733 12.6333 16C12.6333 15.7266 12.86 15.5 13.1333 15.5H18.4667C18.74 15.5 18.9667 15.7266 18.9667 16C18.9667 16.2733 18.74 16.5 18.4667 16.5Z" fill="white"/>
</svg>
