<svg width="20" height="19" viewBox="0 0 20 19" fill="none" xmlns="http://www.w3.org/2000/svg">
<path d="M3.59998 7.38H2C1.45 7.38 1 7.83 1 8.38V17C1 17.55 1.45 18 2 18H3.59998C4.14998 18 4.59998 17.55 4.59998 17V8.38C4.59998 7.83 4.14998 7.38 3.59998 7.38Z" stroke="#9DACC8" stroke-width="1.5" stroke-linecap="round" stroke-linejoin="round"/>
<path d="M10.8 4.18994H9.20001C8.65001 4.18994 8.20001 4.63994 8.20001 5.18994V16.9999C8.20001 17.5499 8.65001 17.9999 9.20001 17.9999H10.8C11.35 17.9999 11.8 17.5499 11.8 16.9999V5.18994C11.8 4.63994 11.35 4.18994 10.8 4.18994Z" stroke="#9DACC8" stroke-width="1.5" stroke-linecap="round" stroke-linejoin="round"/>
<path d="M18 1H16.4C15.85 1 15.4 1.45 15.4 2V17C15.4 17.55 15.85 18 16.4 18H18C18.55 18 19 17.55 19 17V2C19 1.45 18.55 1 18 1Z" stroke="#9DACC8" stroke-width="1.5" stroke-linecap="round" stroke-linejoin="round"/>
</svg>
