<svg width="213" height="95" viewBox="0 0 213 95" fill="none" xmlns="http://www.w3.org/2000/svg">
<path d="M10.4521 87.4256L1 93.5H211V1.08264L201.548 14.9669L194.973 16.2686L190.452 23.6446L182.644 15.4008L177.712 4.11983L172.37 12.7975L164.151 18.8719L157.164 14.9669L150.589 20.6074L148.123 27.9835L139.082 34.0578L136.205 39.2645L129.219 31.0207L121.822 30.1529L115.247 34.0578L109.904 26.2479H104.562L97.9863 23.2107L92.6438 37.9628H86.4795L84.0137 46.6405H81.137L79.4932 53.1488H75.3836L66.3425 46.6405L63.4658 55.3182H60.1781L58.5342 60.0909L44.5616 50.1116L42.0959 53.5826L36.3425 54.8843L30.1781 53.1488L26.8904 68.3347H23.6027L19.9041 73.9752L17.4384 71.8058L10.4521 87.4256Z" fill="url(#paint0_linear_1_1777)"/>
<path d="M1 93.5L10.4521 87.4256L17.4384 71.8058L19.9041 73.9752L23.6027 68.3347H26.8904L30.1781 53.1488L36.3425 54.8843L42.0959 53.5826L44.5616 50.1116L58.5342 60.0909L60.1781 55.3182H63.4658L66.3425 46.6405L75.3836 53.1488H79.4932L81.137 46.6405H84.0137L86.4795 37.9628H92.6438L97.9863 23.2107L104.562 26.2479H109.904L115.247 34.0579L121.822 30.1529L129.219 31.0207L136.205 39.2645L139.082 34.0579L148.123 27.9835L150.589 20.6074L157.164 14.9669L164.151 18.8719L172.37 12.7975L177.712 4.11983L182.644 15.4008L190.452 23.6446L194.973 16.2686L201.548 14.9669L211 1.08264" stroke="#784FFE" stroke-width="3"/>
<defs>
<linearGradient id="paint0_linear_1_1777" x1="106" y1="1.08264" x2="106" y2="93.5" gradientUnits="userSpaceOnUse">
<stop stop-color="#6334FE" stop-opacity="0.18"/>
<stop offset="1" stop-color="#6334FE" stop-opacity="0"/>
</linearGradient>
</defs>
</svg>
