<svg width="115" height="33" viewBox="0 0 115 33" fill="none" xmlns="http://www.w3.org/2000/svg">
<g clip-path="url(#clip0_1_1597)">
<path d="M33 16.5C33 7.38731 25.6127 0 16.5 0C7.38731 0 0 7.38731 0 16.5C0 25.6127 7.38731 33 16.5 33C25.6127 33 33 25.6127 33 16.5Z" fill="#784FFE"/>
<path d="M12.7756 22H20.571V20.2251H15.4751L20.5611 13.0959V11.8182H12.7656V13.593H17.8565L12.7756 20.7223V22Z" fill="white"/>
</g>
<path d="M46.1648 24H56.9318V21.7912H49.4389L56.8892 11.0952V9.45455H46.1222V11.6634H53.6222L46.1648 22.3594V24ZM62.5071 24.2202C64.2188 24.2202 65.2415 23.4176 65.7102 22.5014H65.7955V24H68.267V16.6989C68.267 13.8153 65.9162 12.9489 63.8352 12.9489C61.5412 12.9489 59.7798 13.9716 59.2116 15.9602L61.6122 16.3011C61.8679 15.5554 62.5923 14.9162 63.8494 14.9162C65.0426 14.9162 65.696 15.527 65.696 16.5994V16.642C65.696 17.3807 64.9219 17.4162 62.9972 17.6222C60.8807 17.8494 58.8565 18.4815 58.8565 20.9389C58.8565 23.0838 60.4261 24.2202 62.5071 24.2202ZM63.1747 22.331C62.1023 22.331 61.3352 21.8409 61.3352 20.8963C61.3352 19.9091 62.1946 19.4972 63.3452 19.3338C64.0199 19.2415 65.3693 19.071 65.7031 18.8011V20.0866C65.7031 21.3011 64.723 22.331 63.1747 22.331ZM70.8523 28.0909H73.4233V22.2812H73.5298C73.9347 23.0767 74.7798 24.1918 76.6548 24.1918C79.2259 24.1918 81.1506 22.1534 81.1506 18.5597C81.1506 14.9233 79.169 12.9489 76.6477 12.9489C74.723 12.9489 73.9205 14.1065 73.5298 14.8949H73.3807V13.0909H70.8523V28.0909ZM73.3736 18.5455C73.3736 16.429 74.2827 15.0582 75.9375 15.0582C77.6491 15.0582 78.5298 16.5142 78.5298 18.5455C78.5298 20.5909 77.6349 22.0824 75.9375 22.0824C74.2969 22.0824 73.3736 20.6619 73.3736 18.5455ZM83.3523 28.0909H85.9233V22.2812H86.0298C86.4347 23.0767 87.2798 24.1918 89.1548 24.1918C91.7259 24.1918 93.6506 22.1534 93.6506 18.5597C93.6506 14.9233 91.669 12.9489 89.1477 12.9489C87.223 12.9489 86.4205 14.1065 86.0298 14.8949H85.8807V13.0909H83.3523V28.0909ZM85.8736 18.5455C85.8736 16.429 86.7827 15.0582 88.4375 15.0582C90.1491 15.0582 91.0298 16.5142 91.0298 18.5455C91.0298 20.5909 90.1349 22.0824 88.4375 22.0824C86.7969 22.0824 85.8736 20.6619 85.8736 18.5455ZM100.682 24.2131C103.224 24.2131 104.972 22.9702 105.426 21.0739L103.026 20.804C102.678 21.7273 101.825 22.2102 100.717 22.2102C99.0554 22.2102 97.9545 21.1165 97.9332 19.2486H105.533V18.4602C105.533 14.6321 103.232 12.9489 100.547 12.9489C97.4219 12.9489 95.3835 15.2429 95.3835 18.6094C95.3835 22.0327 97.3935 24.2131 100.682 24.2131ZM97.9403 17.5156C98.0185 16.1236 99.0483 14.9517 100.582 14.9517C102.06 14.9517 103.054 16.0312 103.068 17.5156H97.9403ZM107.708 24H110.279V17.5866C110.279 16.2017 111.323 15.2216 112.736 15.2216C113.169 15.2216 113.709 15.2997 113.929 15.3707V13.0057C113.695 12.9631 113.29 12.9347 113.006 12.9347C111.756 12.9347 110.712 13.6449 110.314 14.9091H110.201V13.0909H107.708V24Z" fill="#2C384F"/>
<defs>
<clipPath id="clip0_1_1597">
<rect width="33" height="33" fill="white"/>
</clipPath>
</defs>
</svg>
