<svg width="24" height="25" viewBox="0 0 24 25" fill="none" xmlns="http://www.w3.org/2000/svg">
<path d="M12.02 3.91003C8.71 3.91003 6.02 6.60003 6.02 9.91003V12.8C6.02 13.41 5.76 14.34 5.45 14.86L4.3 16.77C3.59 17.95 4.08 19.26 5.38 19.7C9.69 21.14 14.34 21.14 18.65 19.7C19.86 19.3 20.39 17.87 19.73 16.77L18.58 14.86C18.28 14.34 18.02 13.41 18.02 12.8V9.91003C18.02 6.61003 15.32 3.91003 12.02 3.91003Z" stroke="#2C384F" stroke-width="1.5" stroke-miterlimit="10" stroke-linecap="round"/>
<path d="M13.87 4.19994C13.56 4.10994 13.24 4.03994 12.91 3.99994C11.95 3.87994 11.03 3.94994 10.17 4.19994C10.46 3.45994 11.18 2.93994 12.02 2.93994C12.86 2.93994 13.58 3.45994 13.87 4.19994Z" stroke="#2C384F" stroke-width="1.5" stroke-miterlimit="10" stroke-linecap="round" stroke-linejoin="round"/>
<path d="M15.02 20.0601C15.02 21.7101 13.67 23.0601 12.02 23.0601C11.2 23.0601 10.44 22.7201 9.89999 22.1801C9.35999 21.6401 9.01999 20.8801 9.01999 20.0601" stroke="#2C384F" stroke-width="1.5" stroke-miterlimit="10"/>
<circle cx="17.5" cy="4.5" r="3.5" fill="#26DE81" stroke="white" stroke-width="2"/>
</svg>
