<svg width="14" height="14" viewBox="0 0 14 14" fill="none" xmlns="http://www.w3.org/2000/svg">
<path d="M9.75999 0.973362L3.73999 2.97336C-0.30668 4.3267 -0.30668 6.53336 3.73999 7.88003L5.52665 8.47336L6.11999 10.26C7.46665 14.3067 9.67999 14.3067 11.0267 10.26L13.0333 4.2467C13.9267 1.5467 12.46 0.0733619 9.75999 0.973362ZM9.97332 4.56003L7.43999 7.1067C7.33999 7.2067 7.21332 7.25336 7.08665 7.25336C6.95999 7.25336 6.83332 7.2067 6.73332 7.1067C6.53999 6.91336 6.53999 6.59336 6.73332 6.40003L9.26665 3.85336C9.45999 3.66003 9.77999 3.66003 9.97332 3.85336C10.1667 4.0467 10.1667 4.3667 9.97332 4.56003Z" fill="white"/>
</svg>
